<svg width="24" height="25" viewBox="0 0 24 25" fill="none" xmlns="http://www.w3.org/2000/svg">
<path fill-rule="evenodd" clip-rule="evenodd" d="M15.0004 12.2449C15.0004 13.9017 13.6572 15.2449 12.0004 15.2449C10.3435 15.2449 9.00039 13.9017 9.00039 12.2449C9.00039 10.588 10.3435 9.24487 12.0004 9.24487C13.6572 9.24487 15.0004 10.588 15.0004 12.2449ZM13.2004 12.2449C13.2004 12.9076 12.6631 13.4449 12.0004 13.4449C11.3376 13.4449 10.8004 12.9076 10.8004 12.2449C10.8004 11.5821 11.3376 11.0449 12.0004 11.0449C12.6631 11.0449 13.2004 11.5821 13.2004 12.2449Z" fill="#FCFCFC"/>
<path fill-rule="evenodd" clip-rule="evenodd" d="M11.2523 3.24487C10.1416 3.24487 9.24112 4.14533 9.24112 5.25609V6.08132C9.24112 6.14908 9.19043 6.28574 9.00447 6.38289C8.81985 6.47935 8.6405 6.58442 8.46697 6.69754C8.28972 6.81309 8.14422 6.78892 8.08496 6.7547L7.36519 6.33914C6.40324 5.78376 5.1732 6.11335 4.61782 7.0753L3.86989 8.37076C3.3145 9.33271 3.64409 10.5627 4.60604 11.1181L5.38303 11.5667C5.4414 11.6004 5.53288 11.7105 5.52628 11.9158C5.52403 11.986 5.52289 12.0565 5.52289 12.1272C5.52289 12.2429 5.52594 12.358 5.53196 12.4724C5.54306 12.6834 5.44944 12.7973 5.39007 12.8316L4.60605 13.2842C3.6441 13.8396 3.31451 15.0697 3.86989 16.0316L4.61783 17.3271C5.17321 18.289 6.40325 18.6186 7.3652 18.0632L8.20574 17.5779C8.26396 17.5443 8.4052 17.52 8.58029 17.629C8.71827 17.715 8.85975 17.7959 9.00447 17.8715C9.19043 17.9686 9.24112 18.1053 9.24112 18.173V19.1463C9.24112 20.257 10.1416 21.1575 11.2523 21.1575H12.7482C13.859 21.1575 14.7594 20.257 14.7594 19.1463V18.1731C14.7594 18.1054 14.8101 17.9687 14.9961 17.8715C15.1408 17.7959 15.2823 17.715 15.4203 17.6291C15.5954 17.5201 15.7366 17.5444 15.7949 17.578L16.6353 18.0632C17.5972 18.6186 18.8273 18.289 19.3827 17.3271L20.1306 16.0316C20.686 15.0697 20.3564 13.8396 19.3944 13.2842L18.6106 12.8317C18.5512 12.7974 18.4576 12.6835 18.4687 12.4725C18.4747 12.3581 18.4778 12.243 18.4778 12.1272C18.4778 12.0565 18.4766 11.986 18.4744 11.9157C18.4678 11.7104 18.5593 11.6003 18.6176 11.5666L19.3945 11.1181C20.3564 10.5627 20.686 9.33271 20.1306 8.37076L19.3827 7.0753C18.8273 6.11335 17.5973 5.78376 16.6353 6.33914L15.9156 6.75465C15.8564 6.78886 15.7109 6.81304 15.5336 6.69749C15.3601 6.58436 15.1807 6.47928 14.9961 6.38282C14.8101 6.28567 14.7594 6.14901 14.7594 6.08124V5.25609C14.7594 4.14532 13.859 3.24487 12.7482 3.24487H11.2523ZM11.0411 5.25609C11.0411 5.13944 11.1357 5.04487 11.2523 5.04487H12.7482C12.8648 5.04487 12.9594 5.13944 12.9594 5.25609V6.08124C12.9594 6.95539 13.5137 7.63923 14.1626 7.97822C14.2958 8.04781 14.4253 8.12366 14.5507 8.20539C15.171 8.60977 16.0504 8.75532 16.8156 8.31349L17.5353 7.89799C17.6363 7.83966 17.7655 7.87428 17.8238 7.9753L18.5718 9.27076C18.6301 9.37178 18.5955 9.50096 18.4945 9.55928L17.7176 10.0078C16.9698 10.4395 16.652 11.2484 16.6753 11.9736C16.677 12.0245 16.6778 12.0758 16.6778 12.1272C16.6778 12.2114 16.6756 12.295 16.6712 12.3779C16.6323 13.1166 16.9464 13.9493 17.7106 14.3905L18.4944 14.8431C18.5955 14.9014 18.6301 15.0306 18.5718 15.1316L17.8238 16.4271C17.7655 16.5281 17.6363 16.5627 17.5353 16.5044L16.6948 16.0191C15.9457 15.5866 15.0851 15.7173 14.4688 16.1011C14.3691 16.1632 14.267 16.2216 14.1626 16.2761C13.5137 16.6151 12.9594 17.299 12.9594 18.1731V19.1463C12.9594 19.2629 12.8648 19.3575 12.7482 19.3575H11.2523C11.1357 19.3575 11.0411 19.2629 11.0411 19.1463V18.173C11.0411 17.2989 10.4869 16.6151 9.83799 16.2761C9.73359 16.2215 9.63147 16.1632 9.53182 16.1011C8.9155 15.7173 8.05493 15.5865 7.30574 16.0191L6.4652 16.5044C6.36417 16.5627 6.235 16.5281 6.17667 16.4271L5.42874 15.1316C5.37041 15.0306 5.40503 14.9014 5.50605 14.8431L6.29007 14.3904C7.05422 13.9493 7.36835 13.1165 7.32947 12.3778C7.32511 12.2949 7.32289 12.2114 7.32289 12.1272C7.32289 12.0758 7.32372 12.0246 7.32536 11.9737C7.34866 11.2485 7.03087 10.4396 6.28303 10.0079L5.50604 9.55928C5.40502 9.50096 5.37041 9.37178 5.42873 9.27076L6.17666 7.9753C6.23499 7.87428 6.36417 7.83966 6.46519 7.89799L7.18496 8.31355C7.95024 8.75538 8.82963 8.60983 9.44996 8.20543C9.57533 8.1237 9.7048 8.04786 9.83799 7.97827C10.4869 7.63927 11.0411 6.95545 11.0411 6.08132V5.25609Z" fill="#FCFCFC"/>
</svg>
