<svg width="22" height="23" viewBox="0 0 22 23" fill="none" xmlns="http://www.w3.org/2000/svg">
<path fill-rule="evenodd" clip-rule="evenodd" d="M13.0663 1.49572C12.0617 1.21522 11.1212 1.51772 10.4529 2.1328C9.79383 2.7378 9.396 3.64164 9.396 4.6078V10.7449C9.396 11.3028 9.61764 11.8379 10.0122 12.2325C10.4067 12.627 10.9418 12.8486 11.4997 12.8486H17.6359C18.603 12.8486 19.5077 12.4508 20.1118 11.7917C20.726 11.1235 21.0294 10.183 20.7489 9.1783C20.2348 7.3465 19.2582 5.67772 17.9129 4.33231C16.5677 2.9869 14.899 2.01008 13.0672 1.49572H13.0663ZM10.771 4.6078C10.771 4.01014 11.0185 3.47847 11.3833 3.14389C11.7372 2.81847 12.1955 2.67822 12.6969 2.81847C15.9511 3.72689 18.5168 6.29264 19.4252 9.5468C19.5655 10.0491 19.4252 10.5075 19.0998 10.8613C18.7652 11.2252 18.2336 11.4727 17.6359 11.4727H11.4997C11.3065 11.4727 11.1211 11.3959 10.9844 11.2593C10.8478 11.1226 10.771 10.9372 10.771 10.744V4.6078Z" fill="#FCFCFC"/>
<path d="M7.9495 4.5677C8.12357 4.513 8.26878 4.39139 8.35318 4.22962C8.43759 4.06786 8.45428 3.87919 8.39958 3.70512C8.34488 3.53105 8.22327 3.38584 8.0615 3.30143C7.89974 3.21702 7.71107 3.20033 7.537 3.25503C3.83458 4.4192 1.146 7.8787 1.146 11.9689C1.146 17.0115 5.23433 21.0998 10.276 21.0998C14.3662 21.0998 17.8257 18.4121 18.9889 14.7079C19.0196 14.6209 19.0324 14.5286 19.0267 14.4365C19.0209 14.3444 18.9967 14.2545 18.9555 14.1719C18.9142 14.0894 18.8568 14.0161 18.7866 13.9562C18.7164 13.8963 18.6349 13.8512 18.5469 13.8235C18.4589 13.7958 18.3662 13.7861 18.2744 13.795C18.1826 13.8039 18.0935 13.8311 18.0124 13.8752C17.9313 13.9192 17.86 13.9791 17.8025 14.0513C17.7451 14.1235 17.7028 14.2065 17.6781 14.2954C17.1824 15.8699 16.1974 17.2454 14.8664 18.2218C13.5354 19.1982 11.9277 19.7247 10.2769 19.7248C9.25844 19.7249 8.24991 19.5244 7.30892 19.1347C6.36794 18.7451 5.51292 18.1739 4.79271 17.4537C4.07249 16.7336 3.50118 15.8786 3.1114 14.9377C2.72162 13.9968 2.521 12.9883 2.521 11.9698C2.52099 10.3191 3.04736 8.71151 4.02361 7.3805C4.99985 6.0495 6.3751 5.06358 7.9495 4.5677Z" fill="#FCFCFC"/>
</svg>
