<svg width="22" height="23" viewBox="0 0 22 23" fill="none" xmlns="http://www.w3.org/2000/svg">
<ellipse cx="8.25016" cy="6.66154" rx="3.66667" ry="3.66667" stroke="white" stroke-width="1.75" stroke-linecap="round" stroke-linejoin="round"/>
<ellipse cx="8.25016" cy="6.66154" rx="3.66667" ry="3.66667" stroke="white" stroke-width="1.75" stroke-linecap="round" stroke-linejoin="round"/>
<path d="M2.75 19.4949V17.6615C2.75 15.6365 4.39162 13.9949 6.41667 13.9949H10.0833C12.1084 13.9949 13.75 15.6365 13.75 17.6615V19.4949" stroke="white" stroke-width="1.75" stroke-linecap="round" stroke-linejoin="round"/>
<path d="M2.75 19.4949V17.6615C2.75 15.6365 4.39162 13.9949 6.41667 13.9949H10.0833C12.1084 13.9949 13.75 15.6365 13.75 17.6615V19.4949" stroke="white" stroke-width="1.75" stroke-linecap="round" stroke-linejoin="round"/>
<path d="M14.6665 3.11401C16.2889 3.52942 17.4237 4.99134 17.4237 6.6661C17.4237 8.34085 16.2889 9.80277 14.6665 10.2182" stroke="white" stroke-width="1.75" stroke-linecap="round" stroke-linejoin="round"/>
<path d="M14.6665 3.11401C16.2889 3.52942 17.4237 4.99134 17.4237 6.6661C17.4237 8.34085 16.2889 9.80277 14.6665 10.2182" stroke="white" stroke-width="1.75" stroke-linecap="round" stroke-linejoin="round"/>
<path d="M19.25 19.4948V17.6615C19.2404 15.9973 18.1113 14.5483 16.5 14.1323" stroke="white" stroke-width="1.75" stroke-linecap="round" stroke-linejoin="round"/>
<path d="M19.25 19.4948V17.6615C19.2404 15.9973 18.1113 14.5483 16.5 14.1323" stroke="white" stroke-width="1.75" stroke-linecap="round" stroke-linejoin="round"/>
</svg>
